<svg width="37" height="39" viewBox="0 0 37 39" fill="none" xmlns="http://www.w3.org/2000/svg">
<path d="M14.0795 1.5345C16.5526 -0.43039 20.0189 -0.508285 22.5681 1.30082L22.8816 1.5345L34.7391 11.0201C36.0438 12.0308 36.8442 13.5322 36.9805 15.1661L37 15.5575V31.3487C37 35.4187 33.7849 38.7292 29.7558 38.9434H25.8805C24.0286 38.9064 22.5311 37.4654 22.3947 35.6543L22.3753 35.3797V29.8122C22.3753 29.2066 21.9254 28.7022 21.3237 28.6029L21.1484 28.5834H15.947C15.3258 28.6029 14.8195 29.0508 14.7416 29.635L14.7221 29.8122V35.3622C14.7221 35.4771 14.7007 35.6134 14.6832 35.7108L14.6637 35.7517L14.6423 35.886C14.4105 37.5433 13.0474 38.8071 11.3532 38.9259L11.1 38.9434H7.61421C3.54421 38.9434 0.214211 35.7517 0 31.7382V15.5575C0.0175263 13.9003 0.74 12.3619 1.94737 11.2908L14.0795 1.5345ZM21.1874 3.65713C19.7074 2.46924 17.6042 2.41276 16.0463 3.44292L15.7523 3.65713L3.91226 13.2012C3.23263 13.7055 2.82368 14.465 2.72632 15.2634L2.70489 15.575V31.3487C2.70489 33.9387 4.73016 36.0613 7.30263 36.2171H11.1C11.5284 36.2171 11.8984 35.9269 11.9549 35.518L11.9958 35.1675L12.0153 35.0682V29.8122C12.0153 27.7285 13.6121 26.0343 15.6568 25.8766H21.1484C23.2302 25.8766 24.9244 27.4754 25.0821 29.5201V35.3797C25.0821 35.7887 25.3742 36.1412 25.7637 36.2171H29.3838C31.9933 36.2171 34.1159 34.2133 34.2717 31.6603L34.2932 31.3487V15.575C34.2717 14.7396 33.9232 13.9587 33.3195 13.3764L33.0663 13.1603L21.1874 3.65713Z" fill="#EB5757"/>
</svg>
