<svg width="218" height="145" viewBox="0 0 218 145" fill="none" xmlns="http://www.w3.org/2000/svg">
<g filter="url(#filter0_d)">
<path fill-rule="evenodd" clip-rule="evenodd" d="M107.588 124.531C159.827 124.531 202.176 96.6539 202.176 62.2656C202.176 27.8773 159.827 0 107.588 0C55.3485 0 13 27.8773 13 62.2656C13 82.612 27.8248 100.679 50.7518 112.041L58.253 137L80.6435 121.968C89.1828 123.636 98.2266 124.531 107.588 124.531Z" fill="#D33E43"/>
</g>
<path d="M87.0648 44.496L77.7048 78H69.7848L63.4968 54.144L56.9208 78L49.0488 78.048L40.0248 44.496H47.2248L53.1288 70.512L59.9448 44.496H67.4328L73.8648 70.368L79.8168 44.496H87.0648ZM89.7246 64.608C89.7246 61.92 90.2526 59.536 91.3086 57.456C92.3966 55.376 93.8526 53.776 95.6766 52.656C97.5326 51.536 99.5966 50.976 101.869 50.976C103.853 50.976 105.581 51.376 107.053 52.176C108.557 52.976 109.757 53.984 110.653 55.2V51.408H117.421V78H110.653V74.112C109.789 75.36 108.589 76.4 107.053 77.232C105.549 78.032 103.805 78.432 101.821 78.432C99.5806 78.432 97.5326 77.856 95.6766 76.704C93.8526 75.552 92.3966 73.936 91.3086 71.856C90.2526 69.744 89.7246 67.328 89.7246 64.608ZM110.653 64.704C110.653 63.072 110.333 61.68 109.693 60.528C109.053 59.344 108.189 58.448 107.101 57.84C106.013 57.2 104.845 56.88 103.597 56.88C102.349 56.88 101.197 57.184 100.141 57.792C99.0846 58.4 98.2206 59.296 97.5486 60.48C96.9086 61.632 96.5886 63.008 96.5886 64.608C96.5886 66.208 96.9086 67.616 97.5486 68.832C98.2206 70.016 99.0846 70.928 100.141 71.568C101.229 72.208 102.381 72.528 103.597 72.528C104.845 72.528 106.013 72.224 107.101 71.616C108.189 70.976 109.053 70.08 109.693 68.928C110.333 67.744 110.653 66.336 110.653 64.704ZM135.072 71.808L141.792 51.408H148.944L139.104 78H130.944L121.152 51.408H128.352L135.072 71.808ZM177.438 64.128C177.438 65.088 177.374 65.952 177.246 66.72H157.806C157.966 68.64 158.638 70.144 159.822 71.232C161.006 72.32 162.462 72.864 164.19 72.864C166.686 72.864 168.462 71.792 169.518 69.648H176.766C175.998 72.208 174.526 74.32 172.35 75.984C170.174 77.616 167.502 78.432 164.334 78.432C161.774 78.432 159.47 77.872 157.422 76.752C155.406 75.6 153.822 73.984 152.67 71.904C151.55 69.824 150.99 67.424 150.99 64.704C150.99 61.952 151.55 59.536 152.67 57.456C153.79 55.376 155.358 53.776 157.374 52.656C159.39 51.536 161.71 50.976 164.334 50.976C166.862 50.976 169.118 51.52 171.102 52.608C173.118 53.696 174.67 55.248 175.758 57.264C176.878 59.248 177.438 61.536 177.438 64.128ZM170.478 62.208C170.446 60.48 169.822 59.104 168.606 58.08C167.39 57.024 165.902 56.496 164.142 56.496C162.478 56.496 161.07 57.008 159.918 58.032C158.798 59.024 158.11 60.416 157.854 62.208H170.478Z" fill="white"/>
<defs>
<filter id="filter0_d" x="9" y="0" width="197.176" height="145" filterUnits="userSpaceOnUse" color-interpolation-filters="sRGB">
<feFlood flood-opacity="0" result="BackgroundImageFix"/>
<feColorMatrix in="SourceAlpha" type="matrix" values="0 0 0 0 0 0 0 0 0 0 0 0 0 0 0 0 0 0 127 0"/>
<feOffset dy="4"/>
<feGaussianBlur stdDeviation="2"/>
<feColorMatrix type="matrix" values="0 0 0 0 0 0 0 0 0 0 0 0 0 0 0 0 0 0 0.25 0"/>
<feBlend mode="normal" in2="BackgroundImageFix" result="effect1_dropShadow"/>
<feBlend mode="normal" in="SourceGraphic" in2="effect1_dropShadow" result="shape"/>
</filter>
</defs>
</svg>
