<svg width="20" height="18" viewBox="0 0 20 18" fill="none" xmlns="http://www.w3.org/2000/svg">
<path d="M10.1194 11.8451L10.3772 11.8462C14.1212 11.8795 16.2395 12.6519 16.2395 14.7616C16.2395 16.8266 14.2093 17.6233 10.629 17.69L10.1194 17.6946C6.21418 17.6946 4 16.9364 4 14.7781C4 12.617 6.22299 11.8451 10.1194 11.8451ZM10.1194 13.0802C6.88084 13.0802 5.2092 13.6607 5.2092 14.7781C5.2092 15.8884 6.87684 16.4595 10.1194 16.4595C13.3581 16.4595 15.0303 15.879 15.0303 14.7616C15.0303 13.6519 13.3612 13.0802 10.1194 13.0802ZM10.1194 2C12.4153 2 14.2589 3.88282 14.2589 6.22739C14.2589 8.57264 12.4154 10.4556 10.1194 10.4556C7.82344 10.4556 5.98067 8.57275 5.98067 6.22739C5.98067 3.8827 7.82358 2 10.1194 2ZM10.1194 3.23512C8.49145 3.23512 7.18988 4.56479 7.18988 6.22739C7.18988 7.89071 8.49135 9.22049 10.1194 9.22049C11.7476 9.22049 13.0497 7.8905 13.0497 6.22739C13.0497 4.56499 11.7475 3.23512 10.1194 3.23512Z" fill="black"/>
<path d="M19.6 9C19.6 13.711 15.3426 17.6 10 17.6C4.65738 17.6 0.4 13.711 0.4 9C0.4 4.28895 4.65738 0.4 10 0.4C15.3426 0.4 19.6 4.28895 19.6 9Z" stroke="black" stroke-width="0.8"/>
</svg>
