<svg width="38" height="38" viewBox="0 0 38 38" fill="none" xmlns="http://www.w3.org/2000/svg">
<g filter="url(#filter0_d)">
<path fill-rule="evenodd" clip-rule="evenodd" d="M18.4173 0C10.4548 0 4 6.31229 4 14.0989C4 21.8855 10.4548 28.1978 18.4173 28.1978C21.8228 28.1978 24.9526 27.0431 27.4195 25.1122L32.1056 29.6829L32.2302 29.7879C32.6653 30.1028 33.2821 30.0669 33.6758 29.6809C34.1089 29.2564 34.1079 28.5689 33.6738 28.1454L29.0428 23.6284C31.3974 21.119 32.8346 17.7731 32.8346 14.0989C32.8346 6.31229 26.3798 0 18.4173 0ZM18.4173 2.1716C25.1533 2.1716 30.614 7.51162 30.614 14.0989C30.614 20.6861 25.1533 26.0262 18.4173 26.0262C11.6813 26.0262 6.22064 20.6861 6.22064 14.0989C6.22064 7.51162 11.6813 2.1716 18.4173 2.1716Z" fill="black"/>
</g>
<defs>
<filter id="filter0_d" x="0" y="0" width="38" height="38" filterUnits="userSpaceOnUse" color-interpolation-filters="sRGB">
<feFlood flood-opacity="0" result="BackgroundImageFix"/>
<feColorMatrix in="SourceAlpha" type="matrix" values="0 0 0 0 0 0 0 0 0 0 0 0 0 0 0 0 0 0 127 0"/>
<feOffset dy="4"/>
<feGaussianBlur stdDeviation="2"/>
<feColorMatrix type="matrix" values="0 0 0 0 0 0 0 0 0 0 0 0 0 0 0 0 0 0 0.25 0"/>
<feBlend mode="normal" in2="BackgroundImageFix" result="effect1_dropShadow"/>
<feBlend mode="normal" in="SourceGraphic" in2="effect1_dropShadow" result="shape"/>
</filter>
</defs>
</svg>
