<svg width="26" height="24" viewBox="0 0 26 24" fill="none" xmlns="http://www.w3.org/2000/svg">
<path fill-rule="evenodd" clip-rule="evenodd" d="M10.7285 14.4349C10.7285 18.402 13.9985 21.6179 18.0323 21.6179C22.0661 21.6179 25.3361 18.402 25.3361 14.4349C25.3361 10.4678 22.0661 7.25183 18.0323 7.25183C13.9985 7.25183 10.7285 10.4678 10.7285 14.4349ZM24.0082 14.4349C24.0082 17.6807 21.3327 20.3119 18.0323 20.3119C14.7319 20.3119 12.0565 17.6807 12.0565 14.4349C12.0565 11.1891 14.7319 8.55783 18.0323 8.55783C21.3327 8.55783 24.0082 11.1891 24.0082 14.4349Z" fill="#EB5757"/>
<path fill-rule="evenodd" clip-rule="evenodd" d="M17.3332 1.37488H6.1503C5.37828 1.37488 4.75244 1.99037 4.75244 2.74962V13.7476C4.75244 14.5068 5.37828 15.1223 6.1503 15.1223H17.3332C18.1052 15.1223 18.731 14.5068 18.731 13.7476V2.74962C18.731 1.99037 18.1052 1.37488 17.3332 1.37488ZM6.15033 13.7476V2.74963H17.3332V13.7476H6.15033Z" fill="#EB5757"/>
<path fill-rule="evenodd" clip-rule="evenodd" d="M2.58031 19.8659L17.6771 19.8063C18.3406 19.8036 18.7384 19.0801 18.3774 18.5326L10.7818 7.01467C10.4496 6.51091 9.69888 6.51388 9.3708 7.02025L1.86962 18.5979C1.51304 19.1482 1.91676 19.8686 2.58031 19.8659ZM10.0844 8.98884L16.1341 18.1627L4.10981 18.2102L10.0844 8.98884Z" fill="#EB5757"/>
</svg>
