<svg width="25" height="16" viewBox="0 0 25 16" fill="none" xmlns="http://www.w3.org/2000/svg">
<line x1="0.997812" y1="14.5526" x2="13.9977" y2="14.4957" stroke="#EB5757"/>
<line x1="11" y1="0.500122" x2="25" y2="0.500122" stroke="#EB5757"/>
<line y1="-0.5" x2="18.2199" y2="-0.5" transform="matrix(0.627259 -0.778811 0.880596 0.473867 1 15.1899)" stroke="#EB5757"/>
<line y1="-0.5" x2="18.2199" y2="-0.5" transform="matrix(0.627259 -0.778811 0.880596 0.473867 13.5713 15.1899)" stroke="#EB5757"/>
<rect x="10" y="4.00012" width="11" height="1" fill="#EB5757"/>
<rect x="10" y="4.00012" width="11" height="1" fill="#EB5757"/>
<rect x="10" y="4.00012" width="11" height="1" fill="#EB5757"/>
<rect x="7" y="6.00012" width="12" height="2" fill="#EB5757"/>
<rect x="7" y="6.00012" width="12" height="2" fill="#EB5757"/>
<rect x="7" y="6.00012" width="12" height="2" fill="#EB5757"/>
<rect x="9" y="5.00012" width="11" height="1" fill="#EB5757"/>
<rect x="9" y="5.00012" width="11" height="1" fill="#EB5757"/>
<rect x="9" y="5.00012" width="11" height="1" fill="#EB5757"/>
<rect x="11" y="3.00012" width="11" height="1" fill="#EB5757"/>
<rect x="11" y="3.00012" width="11" height="1" fill="#EB5757"/>
<rect x="11" y="3.00012" width="11" height="1" fill="#EB5757"/>
<rect x="11" y="2.00012" width="12" height="1" fill="#EB5757"/>
<rect x="11" y="2.00012" width="12" height="1" fill="#EB5757"/>
<rect x="11" y="2.00012" width="12" height="1" fill="#EB5757"/>
<rect x="12" y="1.00012" width="12" height="1" fill="#EB5757"/>
<rect x="12" y="1.00012" width="12" height="1" fill="#EB5757"/>
<rect x="12" y="1.00012" width="12" height="1" fill="#EB5757"/>
<ellipse cx="12.5" cy="2.00012" rx="1.5" ry="1" fill="#EB5757"/>
<ellipse cx="8" cy="7.50012" rx="1" ry="0.5" fill="#EB5757"/>
<circle cx="9" cy="6.00012" r="1" fill="#EB5757"/>
<ellipse cx="18" cy="7.50012" rx="1" ry="0.5" fill="#EB5757"/>
<circle cx="19" cy="6.00012" r="1" fill="#EB5757"/>
<ellipse cx="19.5" cy="5.00012" rx="1.5" ry="1" fill="#EB5757"/>
<ellipse cx="10" cy="4.50012" rx="1" ry="1.5" fill="#EB5757"/>
<circle cx="11" cy="3.00012" r="1" fill="#EB5757"/>
<ellipse cx="8" cy="7.50012" rx="1" ry="0.5" fill="#EB5757"/>
<circle cx="21" cy="4.00012" r="1" fill="#EB5757"/>
<circle cx="22" cy="3.00012" r="1" fill="#EB5757"/>
</svg>
