<svg width="24" height="24" viewBox="0 0 24 24" fill="none" xmlns="http://www.w3.org/2000/svg">
<path fill-rule="evenodd" clip-rule="evenodd" d="M16.4374 2.00012C17.0921 2.00012 17.7197 2.26154 18.1781 2.72354L21.279 5.82444C21.7407 6.28612 22.0001 6.91229 22.0001 7.5652C22.0001 8.21811 21.7407 8.84428 21.279 9.30596L9.95751 20.6239C9.25902 21.4296 8.2689 21.9247 7.1346 22.0025H2V21.0025L2.00325 16.7874C2.08844 15.733 2.57867 14.7525 3.3265 14.0935L14.6954 2.72475C15.1564 2.26095 15.7834 2.00012 16.4374 2.00012ZM7.06398 20.0049C7.59821 19.9671 8.09549 19.7185 8.49479 19.2617L16.0567 11.6998L12.3023 7.94532L4.6961 15.5497C4.29095 15.908 4.04031 16.4094 4 16.868V20.0031L7.06398 20.0049ZM13.7167 6.53127L17.4709 10.2856L19.8648 7.89174C19.9514 7.80514 20.0001 7.68768 20.0001 7.5652C20.0001 7.44272 19.9514 7.32526 19.8648 7.23866L16.7611 4.13498C16.6755 4.04867 16.5589 4.00012 16.4374 4.00012C16.3158 4.00012 16.1992 4.04867 16.1136 4.13498L13.7167 6.53127Z" fill="#EB5757"/>
</svg>
