<svg width="24" height="24" viewBox="0 0 24 24" fill="none" xmlns="http://www.w3.org/2000/svg">
<path fill-rule="evenodd" clip-rule="evenodd" d="M4 2.00012H18.4222L22 5.67689V20.0001C22 21.1047 21.1046 22.0001 20 22.0001H4C2.89543 22.0001 2 21.1047 2 20.0001V4.00012C2 2.89555 2.89543 2.00012 4 2.00012ZM17.5778 4.00012H17V10.0001H7V4.00012H4V20.0001H6V12.0001H18V20.0001H20V6.48937L17.5778 4.00012ZM9 8.00012V4.00012H15V8.00012H9ZM8 14.0001V20.0001H16V14.0001H8ZM14 5.00012H12V7.00012H14V5.00012Z" fill="#EB5757"/>
</svg>
