<svg width="24" height="24" viewBox="0 0 24 24" fill="none" xmlns="http://www.w3.org/2000/svg">
<path fill-rule="evenodd" clip-rule="evenodd" d="M9 1.00012H15C16.1046 1.00012 17 1.89555 17 3.00012V4.00012H20C21.1046 4.00012 22 4.89555 22 6.00012V8.00012C22 9.10469 21.1046 10.0001 20 10.0001H19.9199L19 21.0001C19 22.1047 18.1046 23.0001 17 23.0001H7C5.89543 23.0001 5 22.1047 5.00345 21.0832L4.07987 10.0001H4C2.89543 10.0001 2 9.10469 2 8.00012V6.00012C2 4.89555 2.89543 4.00012 4 4.00012H7V3.00012C7 1.89555 7.89543 1.00012 9 1.00012ZM4 6.00012H7H17H20V8.00012H4V6.00012ZM6.08649 10.0001H17.9132L17.0035 20.9171L17 21.0001H7L6.08649 10.0001ZM15 3.00012V4.00012H9V3.00012H15Z" fill="#EB5757"/>
</svg>
