<svg width="24" height="24" viewBox="0 0 24 24" fill="none" xmlns="http://www.w3.org/2000/svg">
<path fill-rule="evenodd" clip-rule="evenodd" d="M2 10.0001C2 14.4184 5.58172 18.0001 10 18.0001C11.8487 18.0001 13.551 17.373 14.9056 16.32L20.2929 21.7072L21.7071 20.293L16.3199 14.9058C17.3729 13.5511 18 11.8488 18 10.0001C18 5.58184 14.4183 2.00012 10 2.00012C5.58172 2.00012 2 5.58184 2 10.0001ZM10 16.0001C13.3137 16.0001 16 13.3138 16 10.0001C16 6.68641 13.3137 4.00012 10 4.00012C6.68629 4.00012 4 6.68641 4 10.0001C4 13.3138 6.68629 16.0001 10 16.0001ZM6 9.00012V11.0001H14V9.00012H6Z" fill="#EB5757"/>
</svg>
